<svg xmlns="http://www.w3.org/2000/svg" viewBox="0 0 750 500"><g id="freepik--background-simple--inject-16"><path d="M591.43,66.69C519.72,57.35,479,97.12,382.59,101.45,286.84,94,250.33,52.89,177.76,59.85,99.68,67.33,39.2,169.07,56.41,270.85S180.27,429.52,234.79,429.17c43.58-.28,82.07-18,131.76-22.26,49.15,5.88,85.72,24.85,129.19,26.57,54.39,2.16,166.82-51.12,194.68-152.15S668.59,76.73,591.43,66.69Z" style="fill:#625EFF"></path><path d="M591.43,66.69C519.72,57.35,479,97.12,382.59,101.45,286.84,94,250.33,52.89,177.76,59.85,99.68,67.33,39.2,169.07,56.41,270.85S180.27,429.52,234.79,429.17c43.58-.28,82.07-18,131.76-22.26,49.15,5.88,85.72,24.85,129.19,26.57,54.39,2.16,166.82-51.12,194.68-152.15S668.59,76.73,591.43,66.69Z" style="fill:#fff;opacity:0.7000000000000001"></path></g><g id="freepik--Floor--inject-16"><line x1="36.8" y1="452.89" x2="736.25" y2="452.89" style="fill:none;stroke:#263238;stroke-linecap:round;stroke-linejoin:round"></line></g><g id="freepik--Plants--inject-16"><g style="opacity:0.15"><path d="M203.88,79.62c-4.22,4.15-16.71,8.61-16.72,8.61s-.44-9.13-.39-9.71c.54-6.72,5.54-19.4,12.9-21.13,5.3-1.25,10,2.72,10.71,7.9S207.48,76.08,203.88,79.62Z"></path><path d="M196.32,247.82c.06.3.12.58.17.88l-3.92,3.62c-.22-1.21-.44-2.43-.65-3.7-.63-3.58-1.22-7.42-1.79-11.37a97.22,97.22,0,0,1-11.38-.85c-2.12,5.3-9.62,13.42-10.6,14.46,2.44,2.61,4.85,5.13,7.16,7.48q2.37,2.42,4.6,4.62l-4.68,1.8-3.16-3.32c-2.49-2.65-5.1-5.53-7.76-8.5-1.22.78-11.23,7.14-16.73,7.94-5,.72-11.55.25-15.34-3.51s-4-9.84.19-13.3c5.83-4.81,18.95-1.12,24.63,2.52.34.22,3.72,2.95,5.82,4.71-1.08-1.22-2.14-2.4-3.23-3.67-2.19-2.5-4.29-5.06-6.56-7.81l-3.19-4.13c-1.09-1.36-2.07-2.94-3.12-4.41-2.38-3.47-4.61-7.11-6.78-10.82-2.19,1.91-10.09,8.56-14.93,10s-11.37,2-15.69-1.14-5.45-9.12-1.83-13.18c5-5.64,18.57-4,24.73-1.24.39.17,4.59,2.63,6.88,4-1.29-2.24-2.58-4.47-3.81-6.78-3.55-6.66-6.93-13.52-10.33-20.35-1-2.09-2.11-4.16-3.17-6.24-.77.69-10,8.8-15.41,10.45-4.82,1.47-11.37,2-15.68-1.14s-5.46-9.12-1.83-13.18c5-5.64,18.56-4,24.73-1.24.46.21,6.51,3.76,8,4.73-2.33-4.57-4.69-9.11-7.2-13.49a157.73,157.73,0,0,0-11.2-17.08c-.36.32-9.93,8.83-15.49,10.52-4.82,1.47-11.37,2-15.69-1.14s-5.45-9.12-1.82-13.18c5-5.64,18.56-4,24.73-1.24.48.22,7,4,8.11,4.81-.24-.31-.45-.66-.7-1a114.28,114.28,0,0,0-14.13-14.81c-2.8-2.53-5.63-4.79-8.42-6.92-1.63,1.76-9.12,9.76-13.95,11.83-4.64,2-11.09,3.23-15.72.59s-6.42-8.46-3.27-12.9c4.39-6.15,18-6,24.45-3.94.35.11,3.78,1.63,6.26,2.77-1.28-.94-2.58-1.94-3.82-2.82-4.65-3.32-9.12-6.06-13.09-8.47-2.27-1.35-4.35-2.52-6.31-3.6-2.5.9-12.6,4.42-17.75,4S25.32,117,22.43,112.49,20.63,102,25.48,99.54c6.72-3.44,18.74,3,23.51,7.76.41.42,6.11,7.61,6,7.66l-.15.05c1.91,1,3.94,2.1,6.13,3.34,4,2.32,8.58,5,13.32,8.21A157.46,157.46,0,0,1,89.08,137.7a116.08,116.08,0,0,1,14.63,14.69,1.49,1.49,0,0,1,.15.2c-.83-2.06-3-7.88-3.06-8.34-1.58-6.56-.78-20.17,5.67-24.11,4.65-2.83,10.38-.54,12.64,4.17s.61,11.16-1.71,15.64c-2.6,5.05-12.28,12.68-13.05,13.29a158.86,158.86,0,0,1,12,17.39c2.11,3.52,4.14,7.13,6.12,10.77-.66-1.8-1.23-3.41-1.29-3.64-1.58-6.56-.78-20.17,5.67-24.1,4.65-2.84,10.38-.54,12.64,4.16s.61,11.16-1.7,15.64-10.47,11.22-12.64,12.95c.74,1.41,1.51,2.8,2.25,4.21,3.55,6.76,7.07,13.52,10.73,20,1.28,2.3,2.64,4.51,4,6.74-.58-1.6-1.06-2.95-1.11-3.16-1.58-6.56-.78-20.17,5.67-24.11,4.64-2.83,10.38-.54,12.64,4.17s.6,11.16-1.71,15.64-9.68,10.56-12.25,12.64c1.45,2.23,2.89,4.47,4.39,6.58,1.06,1.41,2,2.84,3.12,4.2l3.28,4.07c2.17,2.5,4.4,5.11,6.58,7.5,1.51,1.68,3,3.24,4.45,4.83-1.31-2.27-3.78-6.78-3.94-7.18a34.68,34.68,0,0,1-1.69-17.44,11.2,11.2,0,0,1-.59-1.89c-1.07-5.11,2.09-10.42,7.5-11,7.52-.8,16.42,9.52,19.15,15.69.17.36,1.47,4.51,2.25,7.13-.22-1.61-.46-3.18-.67-4.84-.44-3.29-.78-6.59-1.16-10.13-.12-1.72-.25-3.46-.37-5.21s-.11-3.59-.18-5.4c-.06-4.2.08-8.47.32-12.76-2.88.38-13.14,1.57-18,.13s-10.58-4.61-12.46-9.61.49-10.61,5.75-12c7.31-1.92,17.68,6.93,21.31,12.61.23.36,2.38,4.73,3.51,7.15.17-2.58.32-5.15.57-7.75.71-7.52,1.67-15.1,2.6-22.67.29-2.32.54-4.64.81-7-1,.14-13.18,1.82-18.62.21-4.83-1.44-10.58-4.61-12.45-9.61s.48-10.61,5.75-12c7.3-1.92,17.67,6.93,21.3,12.61.28.43,3.36,6.73,4.07,8.36.58-5.09,1.11-10.18,1.43-15.22a156.57,156.57,0,0,0,.09-20.42c-.48.06-13.16,1.88-18.73.22-4.83-1.43-10.58-4.61-12.45-9.6s.48-10.62,5.75-12c7.3-1.93,17.67,6.92,21.3,12.6.29.45,3.6,7.23,4.12,8.5,0-.4,0-.81,0-1.2A116.34,116.34,0,0,0,189.77,100c-1-3.66-2.06-7.1-3.21-10.42-2.33.58-13,3.11-18.17,2.17-5-.89-11-3.41-13.43-8.17s-.69-10.61,4.39-12.56c7.05-2.72,18.33,4.94,22.57,10.19.23.28,2.25,3.45,3.69,5.77-.55-1.49-1.08-3-1.63-4.46-2-5.33-4.26-10.09-6.25-14.29-1.15-2.38-2.24-4.5-3.28-6.48-2.58-.63-12.94-3.27-17-6.42s-8.21-8.12-8.15-13.45,4.28-9.73,9.69-9.12c7.51.84,14,12.83,15.33,19.44.11.57.89,9.72.76,9.69l-.15,0c1,1.88,2.12,3.92,3.27,6.16,2.08,4.16,4.4,8.89,6.58,14.2A162,162,0,0,1,191,99.63a117.12,117.12,0,0,1,4.1,20.32,2.09,2.09,0,0,0,0,.25c.44-2.17,1.88-8.19,2.05-8.64,2.3-6.35,10.47-17.25,18-17,5.44.2,9,5.28,8.24,10.45s-5.65,9.64-10,12.1c-5,2.78-17.25,3.8-18.22,3.88a159.11,159.11,0,0,1,.39,21.12c-.17,4.1-.48,8.23-.83,12.36.44-1.86.85-3.52.93-3.75,2.3-6.34,10.48-17.25,18-17,5.44.19,9,5.27,8.24,10.44s-5.65,9.65-10,12.11-14.91,3.58-17.68,3.83c-.16,1.58-.29,3.17-.45,4.75-.76,7.6-1.56,15.18-2.11,22.64-.19,2.62-.29,5.22-.39,7.82.39-1.66.74-3.05.81-3.25,2.3-6.35,10.48-17.25,18-17,5.44.2,9,5.28,8.24,10.45s-5.65,9.64-10.05,12.1-13.9,3.47-17.19,3.78c0,2.67-.06,5.33,0,7.91.1,1.77.08,3.47.28,5.23s.33,3.48.49,5.2c.43,3.29.85,6.69,1.35,9.89.33,2.23.69,4.35,1,6.48.17-2.62.59-7.74.68-8.16,1.31-6.62,7.74-18.63,15.24-19.51,5.41-.63,9.65,3.86,9.73,9.08s-4.12,10.39-8.09,13.49c-4.38,3.41-15.88,6.22-17.32,6.56C195.07,241.16,195.69,244.59,196.32,247.82Z"></path><path d="M79.63,130.28c-.08.11-5.41-7.37-5.69-7.88-3.25-5.91-6.07-19.24-.89-24.74,3.73-4,9.86-3.26,13.29.68s3.53,10.6,2.48,15.53C87.59,119.66,79.63,130.27,79.63,130.28Z"></path></g><g style="opacity:0.15"><path d="M486.87,105.88c4.22,4.15,16.71,8.61,16.72,8.61s.44-9.13.39-9.71c-.54-6.72-5.54-19.4-12.9-21.13-5.3-1.25-10,2.72-10.7,7.9S483.28,102.34,486.87,105.88Z"></path><path d="M494.43,274.08c-.06.3-.11.58-.17.88l3.93,3.62c.21-1.21.43-2.43.65-3.7.62-3.58,1.21-7.42,1.78-11.37a97.48,97.48,0,0,0,11.39-.85c2.11,5.3,9.62,13.42,10.59,14.46-2.44,2.61-4.85,5.13-7.15,7.47-1.59,1.62-3.12,3.16-4.61,4.63l4.68,1.79c1-1.07,2.08-2.17,3.16-3.31,2.49-2.65,5.1-5.53,7.76-8.5,1.22.78,11.24,7.14,16.74,7.94,5,.72,11.54.25,15.33-3.51s4-9.84-.19-13.3c-5.83-4.81-19-1.12-24.63,2.52-.34.21-3.71,2.95-5.82,4.71,1.08-1.22,2.14-2.4,3.24-3.67,2.18-2.5,4.28-5.06,6.55-7.81l3.19-4.13c1.09-1.36,2.07-2.94,3.13-4.41,2.37-3.47,4.6-7.11,6.77-10.82,2.2,1.91,10.09,8.56,14.93,10s11.37,2,15.69-1.14,5.45-9.12,1.83-13.18c-5-5.64-18.56-4-24.73-1.24-.39.17-4.59,2.63-6.88,4,1.29-2.24,2.59-4.47,3.81-6.78,3.55-6.67,6.93-13.52,10.34-20.35,1-2.09,2.1-4.16,3.16-6.24.77.69,10,8.8,15.41,10.45,4.82,1.46,11.37,2,15.68-1.14s5.46-9.12,1.83-13.18c-5-5.64-18.56-4-24.73-1.24-.46.2-6.51,3.75-8,4.73,2.33-4.57,4.69-9.11,7.2-13.49a157.73,157.73,0,0,1,11.2-17.08c.36.32,9.93,8.83,15.49,10.52,4.82,1.46,11.37,2,15.69-1.14s5.45-9.12,1.82-13.18c-5-5.64-18.56-4-24.73-1.24-.48.21-7,4-8.11,4.81.24-.31.45-.66.7-1a114.28,114.28,0,0,1,14.13-14.81c2.8-2.53,5.63-4.79,8.43-6.92,1.62,1.76,9.11,9.76,14,11.83,4.63,2,11.08,3.23,15.71.59s6.43-8.47,3.27-12.9c-4.39-6.15-18-6-24.45-3.94-.35.11-3.77,1.63-6.26,2.77,1.28-.94,2.58-1.94,3.82-2.82,4.65-3.32,9.12-6.07,13.09-8.47,2.28-1.35,4.35-2.52,6.31-3.6,2.5.9,12.6,4.42,17.75,4s11.33-2.24,14.22-6.72,1.8-10.47-3.05-13c-6.72-3.44-18.74,3-23.51,7.76-.41.41-6.11,7.61-6,7.66l.15.05c-1.91,1-3.94,2.1-6.13,3.34-4,2.32-8.57,5-13.32,8.21A158.77,158.77,0,0,0,601.67,164,116.08,116.08,0,0,0,587,178.65l-.15.19c.83-2.05,3-7.87,3.06-8.33,1.58-6.56.78-20.17-5.67-24.11-4.64-2.83-10.38-.54-12.64,4.17s-.6,11.16,1.71,15.64c2.6,5,12.28,12.68,13,13.29a157.42,157.42,0,0,0-12,17.39c-2.12,3.52-4.15,7.13-6.13,10.77.66-1.8,1.23-3.41,1.29-3.64,1.58-6.56.78-20.17-5.67-24.11-4.65-2.83-10.38-.54-12.64,4.17s-.61,11.16,1.7,15.64,10.47,11.22,12.64,12.95c-.74,1.41-1.5,2.8-2.25,4.21-3.55,6.76-7.07,13.52-10.73,20.05-1.28,2.3-2.64,4.51-4,6.74.58-1.6,1.06-2.95,1.11-3.16,1.58-6.57.78-20.17-5.66-24.11-4.65-2.83-10.39-.54-12.64,4.17s-.61,11.16,1.7,15.64,9.68,10.56,12.25,12.64c-1.45,2.23-2.89,4.47-4.39,6.58-1.06,1.41-2,2.84-3.12,4.2l-3.27,4.06c-2.18,2.51-4.41,5.11-6.59,7.51-1.51,1.68-3,3.24-4.45,4.83,1.31-2.28,3.78-6.78,3.94-7.18a34.68,34.68,0,0,0,1.69-17.44,11.2,11.2,0,0,0,.59-1.89c1.07-5.11-2.09-10.42-7.5-11-7.52-.79-16.42,9.53-19.15,15.7-.16.36-1.47,4.51-2.25,7.13.22-1.61.46-3.18.67-4.84.44-3.29.78-6.59,1.16-10.13.12-1.72.25-3.46.37-5.21s.12-3.59.18-5.4c.06-4.2-.08-8.47-.32-12.76,2.89.38,13.14,1.57,18,.13s10.59-4.61,12.46-9.61-.49-10.61-5.75-12c-7.31-1.92-17.68,6.93-21.31,12.61-.23.36-2.38,4.73-3.51,7.15-.16-2.58-.31-5.15-.56-7.75-.72-7.52-1.68-15.1-2.61-22.68-.29-2.31-.54-4.63-.81-6.94,1,.14,13.18,1.82,18.62.21,4.83-1.44,10.58-4.61,12.45-9.61s-.48-10.61-5.74-12c-7.31-1.92-17.68,6.93-21.31,12.61-.28.43-3.36,6.72-4.07,8.36-.58-5.09-1.11-10.18-1.43-15.22a156.57,156.57,0,0,1-.09-20.42c.48.06,13.16,1.88,18.73.22,4.83-1.44,10.58-4.61,12.45-9.6s-.48-10.62-5.74-12c-7.31-1.92-17.68,6.93-21.31,12.61-.29.45-3.6,7.23-4.11,8.5,0-.4,0-.81,0-1.2A115.4,115.4,0,0,1,501,126.22c.95-3.66,2.06-7.1,3.21-10.42,2.33.58,13,3.11,18.17,2.17,5-.89,11-3.42,13.44-8.17s.68-10.61-4.4-12.57c-7-2.71-18.33,5-22.56,10.2-.23.28-2.26,3.45-3.69,5.77.54-1.49,1.07-3,1.62-4.46,2.05-5.33,4.26-10.09,6.25-14.29,1.15-2.38,2.24-4.51,3.28-6.48,2.58-.63,12.94-3.27,17-6.42s8.21-8.12,8.15-13.45S537.2,58.37,531.8,59c-7.51.84-14,12.83-15.33,19.44-.12.57-.9,9.72-.77,9.69l.16,0c-1,1.88-2.13,3.92-3.28,6.16-2.08,4.16-4.4,8.89-6.57,14.2a157.76,157.76,0,0,0-6.21,17.46,115.28,115.28,0,0,0-4.1,20.32c0,.08,0,.17,0,.25-.44-2.17-1.88-8.19-2.05-8.64-2.3-6.35-10.47-17.25-18-17-5.44.2-9,5.28-8.24,10.45s5.65,9.64,10,12.1c5,2.78,17.25,3.8,18.23,3.88a157.41,157.41,0,0,0-.4,21.12c.17,4.1.48,8.23.83,12.36-.44-1.86-.85-3.52-.93-3.75-2.3-6.34-10.48-17.25-18-17-5.44.19-8.95,5.27-8.24,10.44s5.65,9.65,10.05,12.11,14.91,3.58,17.69,3.83c.15,1.58.28,3.16.44,4.75.77,7.6,1.56,15.18,2.11,22.64.19,2.62.29,5.22.4,7.82-.4-1.66-.75-3.05-.82-3.25-2.3-6.35-10.47-17.25-18-17-5.44.2-8.95,5.28-8.24,10.45s5.65,9.64,10,12.1,13.9,3.47,17.19,3.78c0,2.67.06,5.33,0,7.91-.11,1.77-.08,3.47-.29,5.23s-.32,3.48-.48,5.2c-.43,3.29-.86,6.69-1.36,9.89-.33,2.23-.69,4.35-1,6.48-.16-2.62-.59-7.74-.68-8.16-1.31-6.62-7.74-18.63-15.24-19.51-5.41-.63-9.65,3.86-9.73,9.08s4.12,10.39,8.1,13.48c4.37,3.42,15.87,6.23,17.31,6.57C495.68,267.42,495.06,270.85,494.43,274.08Z"></path><path d="M611.12,156.54c.09.11,5.41-7.37,5.69-7.88,3.26-5.91,6.08-19.24.9-24.74-3.74-4-9.87-3.26-13.29.68s-3.54,10.6-2.49,15.53C603.16,145.92,611.12,156.53,611.12,156.54Z"></path></g></g><g id="freepik--dictionaries-2--inject-16"><path d="M495.19,431.26V394.34a21.64,21.64,0,0,1,21.63-21.63H312.88a21.63,21.63,0,0,0-21.63,21.63v36.92a21.62,21.62,0,0,0,21.63,21.63H516.82A21.63,21.63,0,0,1,495.19,431.26Z" style="fill:#263238;stroke:#263238;stroke-linecap:round;stroke-linejoin:round"></path><path d="M698.43,375.64l2.43-1.6a.73.73,0,0,0-.4-1.33H516.82a21.64,21.64,0,0,0-21.63,21.63v36.92a21.63,21.63,0,0,0,21.63,21.63H700.46a.72.72,0,0,0,.4-1.33l-2.43-1.6Z" style="fill:#949494;stroke:#263238;stroke-linecap:round;stroke-linejoin:round"></path><path d="M527.64,375.64H698.43a0,0,0,0,1,0,0V450a0,0,0,0,1,0,0H527.64a28.44,28.44,0,0,1-28.44-28.44V404.08A28.44,28.44,0,0,1,527.64,375.64Z" style="fill:#fff;stroke:#263238;stroke-linecap:round;stroke-linejoin:round"></path><line x1="505.43" y1="389.32" x2="577.08" y2="389.32" style="fill:none;stroke:#263238;stroke-linecap:round;stroke-linejoin:round"></line><line x1="558.27" y1="396.12" x2="625.12" y2="396.12" style="fill:none;stroke:#263238;stroke-linecap:round;stroke-linejoin:round"></line><line x1="598.7" y1="404.53" x2="534.65" y2="404.53" style="fill:none;stroke:#263238;stroke-linecap:round;stroke-linejoin:round"></line><line x1="507.03" y1="430.15" x2="549.06" y2="430.15" style="fill:none;stroke:#263238;stroke-linecap:round;stroke-linejoin:round"></line><line x1="538.26" y1="436.15" x2="601.1" y2="436.15" style="fill:none;stroke:#263238;stroke-linecap:round;stroke-linejoin:round"></line><line x1="530.65" y1="441.76" x2="547.46" y2="441.76" style="fill:none;stroke:#263238;stroke-linecap:round;stroke-linejoin:round"></line><line x1="577.89" y1="424.55" x2="684.76" y2="424.55" style="fill:none;stroke:#263238;stroke-linecap:round;stroke-linejoin:round"></line><line x1="697.17" y1="407.33" x2="675.16" y2="407.33" style="fill:none;stroke:#263238;stroke-linecap:round;stroke-linejoin:round"></line><line x1="693.57" y1="401.73" x2="671.15" y2="401.73" style="fill:none;stroke:#263238;stroke-linecap:round;stroke-linejoin:round"></line><line x1="693.57" y1="437.76" x2="637.53" y2="437.76" style="fill:none;stroke:#263238;stroke-linecap:round;stroke-linejoin:round"></line><path d="M485.57,350.7V313.78a21.62,21.62,0,0,1,21.63-21.63H303.25a21.62,21.62,0,0,0-21.62,21.63V350.7a21.63,21.63,0,0,0,21.62,21.63h204A21.63,21.63,0,0,1,485.57,350.7Z" style="fill:#8c8c8c;stroke:#263238;stroke-linecap:round;stroke-linejoin:round"></path><path d="M688.8,295.08l2.44-1.6a.72.72,0,0,0-.4-1.33H507.2a21.62,21.62,0,0,0-21.63,21.63V350.7a21.63,21.63,0,0,0,21.63,21.63H690.84a.73.73,0,0,0,.4-1.33l-2.44-1.6Z" style="fill:#949494;stroke:#263238;stroke-linecap:round;stroke-linejoin:round"></path><path d="M518,295.08H688.8a0,0,0,0,1,0,0V369.4a0,0,0,0,1,0,0H518A28.44,28.44,0,0,1,489.57,341V323.52A28.44,28.44,0,0,1,518,295.08Z" style="fill:#fff;stroke:#263238;stroke-linecap:round;stroke-linejoin:round"></path><line x1="495.81" y1="308.76" x2="567.46" y2="308.76" style="fill:none;stroke:#263238;stroke-linecap:round;stroke-linejoin:round"></line><line x1="548.65" y1="315.56" x2="615.5" y2="315.56" style="fill:none;stroke:#263238;stroke-linecap:round;stroke-linejoin:round"></line><line x1="589.08" y1="323.97" x2="525.03" y2="323.97" style="fill:none;stroke:#263238;stroke-linecap:round;stroke-linejoin:round"></line><line x1="497.41" y1="349.59" x2="539.44" y2="349.59" style="fill:none;stroke:#263238;stroke-linecap:round;stroke-linejoin:round"></line><line x1="528.63" y1="355.59" x2="591.48" y2="355.59" style="fill:none;stroke:#263238;stroke-linecap:round;stroke-linejoin:round"></line><line x1="521.03" y1="361.19" x2="537.84" y2="361.19" style="fill:none;stroke:#263238;stroke-linecap:round;stroke-linejoin:round"></line><line x1="568.26" y1="343.98" x2="675.14" y2="343.98" style="fill:none;stroke:#263238;stroke-linecap:round;stroke-linejoin:round"></line><line x1="687.55" y1="326.77" x2="665.54" y2="326.77" style="fill:none;stroke:#263238;stroke-linecap:round;stroke-linejoin:round"></line><line x1="683.95" y1="321.17" x2="661.53" y2="321.17" style="fill:none;stroke:#263238;stroke-linecap:round;stroke-linejoin:round"></line><line x1="683.95" y1="357.19" x2="627.91" y2="357.19" style="fill:none;stroke:#263238;stroke-linecap:round;stroke-linejoin:round"></line><polygon points="654.71 415.03 638.24 398.56 621.81 415.03 621.81 321.11 654.71 321.11 654.71 415.03" style="fill:#263238;stroke:#263238;stroke-linecap:round;stroke-linejoin:round"></polygon><path d="M503.44,270.14V233.21a21.63,21.63,0,0,0-21.63-21.62H685.75a21.62,21.62,0,0,1,21.63,21.62v36.93a21.62,21.62,0,0,1-21.63,21.62H481.81A21.63,21.63,0,0,0,503.44,270.14Z" style="fill:#625EFF;stroke:#263238;stroke-linecap:round;stroke-linejoin:round"></path><path d="M300.2,214.51l-2.43-1.59a.72.72,0,0,1,.4-1.33H481.81a21.63,21.63,0,0,1,21.63,21.62v36.93a21.63,21.63,0,0,1-21.63,21.62H298.17a.72.72,0,0,1-.4-1.33l2.43-1.59Z" style="fill:#949494;stroke:#263238;stroke-linecap:round;stroke-linejoin:round"></path><path d="M328.64,214.51H499.43a0,0,0,0,1,0,0v74.32a0,0,0,0,1,0,0H328.64A28.44,28.44,0,0,1,300.2,260.4V243A28.44,28.44,0,0,1,328.64,214.51Z" transform="translate(799.63 503.35) rotate(180)" style="fill:#fff;stroke:#263238;stroke-linecap:round;stroke-linejoin:round"></path><line x1="493.2" y1="228.19" x2="421.54" y2="228.19" style="fill:none;stroke:#263238;stroke-linecap:round;stroke-linejoin:round"></line><line x1="440.36" y1="235" x2="373.51" y2="235" style="fill:none;stroke:#263238;stroke-linecap:round;stroke-linejoin:round"></line><line x1="399.93" y1="243.4" x2="463.97" y2="243.4" style="fill:none;stroke:#263238;stroke-linecap:round;stroke-linejoin:round"></line><line x1="491.59" y1="269.02" x2="449.56" y2="269.02" style="fill:none;stroke:#263238;stroke-linecap:round;stroke-linejoin:round"></line><line x1="460.37" y1="275.03" x2="397.52" y2="275.03" style="fill:none;stroke:#263238;stroke-linecap:round;stroke-linejoin:round"></line><line x1="467.98" y1="280.63" x2="451.16" y2="280.63" style="fill:none;stroke:#263238;stroke-linecap:round;stroke-linejoin:round"></line><line x1="420.74" y1="263.42" x2="313.86" y2="263.42" style="fill:none;stroke:#263238;stroke-linecap:round;stroke-linejoin:round"></line><line x1="301.45" y1="246.21" x2="323.47" y2="246.21" style="fill:none;stroke:#263238;stroke-linecap:round;stroke-linejoin:round"></line><line x1="305.06" y1="240.6" x2="327.47" y2="240.6" style="fill:none;stroke:#263238;stroke-linecap:round;stroke-linejoin:round"></line><line x1="305.06" y1="276.63" x2="361.1" y2="276.63" style="fill:none;stroke:#263238;stroke-linecap:round;stroke-linejoin:round"></line><path d="M527.94,264.92V238.64h6.19a11.72,11.72,0,0,1,5,.88,5.11,5.11,0,0,1,2.57,2.69,12.16,12.16,0,0,1,.76,4.61v9.6a13,13,0,0,1-.76,4.75,5.36,5.36,0,0,1-2.53,2.83,10.68,10.68,0,0,1-4.85.92Zm4.8-3.34h1.46a3.79,3.79,0,0,0,2.36-.58,2.58,2.58,0,0,0,.88-1.71,19.23,19.23,0,0,0,.16-2.74V246.49a11.86,11.86,0,0,0-.22-2.56,2.24,2.24,0,0,0-1-1.43,4.45,4.45,0,0,0-2.3-.45h-1.39Z" style="fill:#263238"></path><path d="M546.13,264.92V238.64h4.74v26.28Z" style="fill:#263238"></path><path d="M562,265.28a7.82,7.82,0,0,1-4.53-1.14,6,6,0,0,1-2.29-3.1,14.41,14.41,0,0,1-.65-4.52v-9.38a15.13,15.13,0,0,1,.65-4.67,5.67,5.67,0,0,1,2.29-3.05,10.17,10.17,0,0,1,8.79-.14,5,5,0,0,1,2.19,2.64,11.35,11.35,0,0,1,.65,4v2.21h-4.61v-2.27a15.41,15.41,0,0,0-.11-2,2.51,2.51,0,0,0-.62-1.45,2.28,2.28,0,0,0-1.73-.53,2.5,2.5,0,0,0-1.8.56,2.75,2.75,0,0,0-.73,1.53,12.86,12.86,0,0,0-.16,2.16v11.41a10.28,10.28,0,0,0,.22,2.36,2.43,2.43,0,0,0,.83,1.39,2.62,2.62,0,0,0,1.64.47,2.16,2.16,0,0,0,1.7-.57,2.68,2.68,0,0,0,.63-1.5,15,15,0,0,0,.13-2.11v-2.37h4.61v2.11a12.76,12.76,0,0,1-.62,4.13,5.45,5.45,0,0,1-2.15,2.83A7.81,7.81,0,0,1,562,265.28Z" style="fill:#263238"></path><path d="M575.07,264.92V242.18h-4.19v-3.54H584v3.54h-4.12v22.74Z" style="fill:#263238"></path><path d="M586.52,264.92V238.64h4.74v26.28Z" style="fill:#263238"></path><path d="M602.45,265.28a8.35,8.35,0,0,1-4.45-1,5.77,5.77,0,0,1-2.37-3,13.47,13.47,0,0,1-.71-4.6v-9.83a13.16,13.16,0,0,1,.71-4.56,5.64,5.64,0,0,1,2.37-2.9,10.4,10.4,0,0,1,8.94,0,5.74,5.74,0,0,1,2.37,2.9,12.9,12.9,0,0,1,.73,4.56v9.86a13.06,13.06,0,0,1-.73,4.56,5.93,5.93,0,0,1-2.37,3A8.17,8.17,0,0,1,602.45,265.28Zm0-3.54a2.5,2.5,0,0,0,1.76-.52,2.58,2.58,0,0,0,.77-1.43,9.34,9.34,0,0,0,.19-2v-12.1a9.11,9.11,0,0,0-.19-2,2.47,2.47,0,0,0-.77-1.38,3.28,3.28,0,0,0-3.48,0,2.43,2.43,0,0,0-.78,1.38,9.08,9.08,0,0,0-.2,2v12.1a10.08,10.08,0,0,0,.18,2,2.47,2.47,0,0,0,.77,1.43A2.52,2.52,0,0,0,602.45,261.74Z" style="fill:#263238"></path><path d="M613.57,264.92V238.64h3.34l6.4,15v-15h4v26.28h-3.18l-6.42-15.7v15.7Z" style="fill:#263238"></path><path d="M629.92,264.92l5.26-26.28h5.12l5.26,26.28h-4.45l-1-6.07H635.5l-1.07,6.07ZM636,255.8h3.57l-1.79-11Z" style="fill:#263238"></path><path d="M648.06,264.92V238.64h6.29a13.9,13.9,0,0,1,4.49.64,5.19,5.19,0,0,1,2.79,2.15,7.79,7.79,0,0,1,1,4.16,13,13,0,0,1-.29,2.85,5.65,5.65,0,0,1-1,2.16,4.59,4.59,0,0,1-1.93,1.38L663,264.92h-4.8l-3.18-12h-2.2v12Zm4.8-15.05h1.49a5.08,5.08,0,0,0,2.22-.41,2.39,2.39,0,0,0,1.19-1.29,6.45,6.45,0,0,0,.35-2.29,5,5,0,0,0-.73-3,3.25,3.25,0,0,0-2.77-1h-1.75Z" style="fill:#263238"></path><path d="M669.6,264.92v-10l-5.32-16.26h4.47L672,249.06l3-10.42h4.38l-5.25,16.26v10Z" style="fill:#263238"></path><rect x="528.29" y="273.06" width="145.88" height="3.35" style="fill:#263238;stroke:#263238;stroke-linecap:round;stroke-linejoin:round"></rect><rect x="528.29" y="228.1" width="145.88" height="3.35" style="fill:#263238;stroke:#263238;stroke-linecap:round;stroke-linejoin:round"></rect></g><g id="freepik--dictionary-1--inject-16"><path d="M501.49,151.23a4.17,4.17,0,0,0-4.17-4.16H186.72a4.17,4.17,0,1,0,0,8.33h306l-22.38,289H284.69l-10.5-11.11-14,11.11H132.3a4.17,4.17,0,1,0,0,8.33H473a3.91,3.91,0,0,0,.83.15h0a4.16,4.16,0,0,0,4.47-3.84l23-296.73A4.27,4.27,0,0,0,501.49,151.23Z" style="fill:#263238;stroke:#263238;stroke-linecap:round;stroke-linejoin:round"></path><path d="M275.16,437.54c1.65.66,4.87,6.25,6.79,9.8H474.56l-15.49-36.9s-14.83-6.72-53.55-19.46-63.22-17.15-89.2-11.76S280.06,388,280.06,388s-8.82-7.35-35.78-7.84-107.07,30.24-107.07,30.24l-5.65,36.9h135.3C269.35,443.2,273.49,436.87,275.16,437.54Z" style="fill:#fff;stroke:#263238;stroke-linecap:round;stroke-linejoin:round"></path><path d="M309.38,118.22,277.87,404s34.38-14.32,56.58-15c18.2-.59,73,12.31,92.15,17a107.89,107.89,0,0,0,13.83,2.44l18.64,2.08,22.2-282.91s-36.52-8.59-63-17.19S339.46,95.3,309.38,118.22Z" style="fill:#fff;stroke:#263238;stroke-linecap:round;stroke-linejoin:round"></path><path d="M435.47,139.25l2.44-18,3.78,1.29a10.58,10.58,0,0,1,3.05,1.54,4.72,4.72,0,0,1,1.62,2.15,6.34,6.34,0,0,1,.22,3,6.81,6.81,0,0,1-.49,1.81,2.78,2.78,0,0,1-.94,1.19,2.37,2.37,0,0,1-1.46.4l1.45,9.91-2.53-.86-1.33-9.27-2-.7-1.14,8.43Zm4-9.33,1,.34a5.22,5.22,0,0,0,1.85.36,1.48,1.48,0,0,0,1.15-.56,3.62,3.62,0,0,0,.56-1.69,3.91,3.91,0,0,0-.29-2.48,4,4,0,0,0-2.3-1.51l-1.16-.4Z"></path><path d="M448,137.47l.24-1.8,5.19,1.77-.25,1.8Z"></path><path d="M457.06,146.63l2.18-16.11-3.19-1.09.26-1.86,8.9,3-.26,1.86-3.09-1.05-2.18,16.1Z"></path><path d="M309.38,118.22,277.87,404s-22.19-14.32-39.34-15c-13.1-.55-53.2,10.59-71.46,15.89A135.85,135.85,0,0,1,147.63,409l-10.42,1.45,38.58-278.58s17.42-5.82,39.76-14.42S290.48,95.3,309.38,118.22Z" style="fill:#fff;stroke:#263238;stroke-linecap:round;stroke-linejoin:round"></path><path d="M190.84,143.08l1.94-14.31,3.26-1a8,8,0,0,1,2.63-.42,1.59,1.59,0,0,1,1.4.75,3.23,3.23,0,0,1,.22,2,6.79,6.79,0,0,1-.41,1.58,4.67,4.67,0,0,1-.8,1.34,4.36,4.36,0,0,1-1.25,1l1.33,6.49-2.18.65-1.21-6.08-1.76.53-.91,6.71Zm3.36-8.82.86-.26a6.6,6.6,0,0,0,1.59-.68,2.81,2.81,0,0,0,1-1,4.19,4.19,0,0,0,.48-1.51c.11-.84,0-1.39-.28-1.66s-1-.24-2,.06l-1,.3Z"></path><path d="M201.56,135.44l.2-1.43,4.46-1.34L206,134.1Z"></path><path d="M209.42,137.51l1.74-12.83-2.74.83.2-1.49,7.66-2.3-.2,1.49-2.66.8-1.74,12.82Z"></path><polygon points="481.27 127.53 495.2 155.74 474.56 447.34 459.07 410.44 481.27 127.53" style="fill:#fff;stroke:#263238;stroke-linecap:round;stroke-linejoin:round"></polygon><path d="M266.86,447.34s-9.52-6.52-19.06-8.9-36.75.95-63,3.34" style="fill:none;stroke:#263238;stroke-linecap:round;stroke-linejoin:round"></path><path d="M267.36,440.82s-10-8.11-22.9-9.06" style="fill:none;stroke:#263238;stroke-linecap:round;stroke-linejoin:round"></path><path d="M271.66,436.05s-15.75-12.88-35.32-12.88c-14.86,0-32.93,3.34-32.93,3.34" style="fill:none;stroke:#263238;stroke-linecap:round;stroke-linejoin:round"></path><path d="M273.09,424.6s-12.41-9.07-23.39-10S224.89,416,224.89,416" style="fill:none;stroke:#263238;stroke-linecap:round;stroke-linejoin:round"></path><path d="M274,413.15s-9.06-8.12-21.47-10a80.85,80.85,0,0,0-23.39,0" style="fill:none;stroke:#263238;stroke-linecap:round;stroke-linejoin:round"></path><path d="M278.81,416.49s15.28-11,41-8.12" style="fill:none;stroke:#263238;stroke-linecap:round;stroke-linejoin:round"></path><path d="M277.86,427s7.64-5.72,27.2-5.72" style="fill:none;stroke:#263238;stroke-linecap:round;stroke-linejoin:round"></path><path d="M279.29,437s15.75-6.21,30.07-4.78,16.22,2.39,33.88,4.3" style="fill:none;stroke:#263238;stroke-linecap:round;stroke-linejoin:round"></path><path d="M287.88,443.69a55.28,55.28,0,0,1,24.34-2.87" style="fill:none;stroke:#263238;stroke-linecap:round;stroke-linejoin:round"></path><path d="M314.13,421.74s15.27.95,22.9,3.81" style="fill:none;stroke:#263238;stroke-linecap:round;stroke-linejoin:round"></path><line x1="222.5" y1="404.08" x2="212.96" y2="406.46" style="fill:none;stroke:#263238;stroke-linecap:round;stroke-linejoin:round"></line><line x1="197.69" y1="428.42" x2="190.53" y2="430.32" style="fill:none;stroke:#263238;stroke-linecap:round;stroke-linejoin:round"></line><line x1="325.58" y1="409.8" x2="333.22" y2="411.24" style="fill:none;stroke:#263238;stroke-linecap:round;stroke-linejoin:round"></line><path d="M437.25,439.39s20.52,1.43,28.15,1.43" style="fill:none;stroke:#263238;stroke-linecap:round;stroke-linejoin:round"></path><line x1="465.4" y1="437.48" x2="457.29" y2="437.01" style="fill:none;stroke:#263238;stroke-linecap:round;stroke-linejoin:round"></line><path d="M436.77,427.46s16.23,1,24.34,1.91" style="fill:none;stroke:#263238;stroke-linecap:round;stroke-linejoin:round"></path><path d="M139.47,419.83a163.25,163.25,0,0,0,28.63-5.73" style="fill:none;stroke:#263238;stroke-linecap:round;stroke-linejoin:round"></path><path d="M150.44,424.12s11.46-.95,18.14-3.34" style="fill:none;stroke:#263238;stroke-linecap:round;stroke-linejoin:round"></path><path d="M455.38,418.87s-13.36,1.91-32.45-2.38A312.36,312.36,0,0,0,390,410.76" style="fill:none;stroke:#263238;stroke-linecap:round;stroke-linejoin:round"></path><line x1="414.82" y1="440.35" x2="427.7" y2="440.82" style="fill:none;stroke:#263238;stroke-linecap:round;stroke-linejoin:round"></line><line x1="487.83" y1="144.47" x2="482.58" y2="212.24" style="fill:none;stroke:#263238;stroke-linecap:round;stroke-linejoin:round"></line><line x1="490.7" y1="162.13" x2="488.31" y2="191.72" style="fill:none;stroke:#263238;stroke-linecap:round;stroke-linejoin:round"></line><line x1="482.11" y1="273.32" x2="477.33" y2="335.84" style="fill:none;stroke:#263238;stroke-linecap:round;stroke-linejoin:round"></line><line x1="474.95" y1="353.97" x2="470.18" y2="416.49" style="fill:none;stroke:#263238;stroke-linecap:round;stroke-linejoin:round"></line><line x1="478.52" y1="266.16" x2="475.43" y2="306.73" style="fill:none;stroke:#263238;stroke-linecap:round;stroke-linejoin:round"></line><line x1="474.7" y1="313.88" x2="471.61" y2="354.45" style="fill:none;stroke:#263238;stroke-linecap:round;stroke-linejoin:round"></line><path d="M317.49,151.07s20.23-14.17,56.66-8.1" style="fill:none;stroke:#b2b2b2;stroke-linecap:round;stroke-linejoin:round"></path><path d="M316.42,160.1s20.29-14.22,56.72-8.28" style="fill:none;stroke:#b2b2b2;stroke-linecap:round;stroke-linejoin:round"></path><path d="M315.36,169.13s20.34-14.27,56.77-8.47" style="fill:none;stroke:#b2b2b2;stroke-linecap:round;stroke-linejoin:round"></path><path d="M314.3,178.15s20.39-14.32,56.81-8.65" style="fill:none;stroke:#b2b2b2;stroke-linecap:round;stroke-linejoin:round"></path><path d="M313.23,187.18s20.45-14.37,56.87-8.83" style="fill:none;stroke:#b2b2b2;stroke-linecap:round;stroke-linejoin:round"></path><path d="M312.17,196.21s20.49-14.42,56.92-9" style="fill:none;stroke:#b2b2b2;stroke-linecap:round;stroke-linejoin:round"></path><path d="M311.1,205.24s20.55-14.48,57-9.21" style="fill:none;stroke:#b2b2b2;stroke-linecap:round;stroke-linejoin:round"></path><path d="M310,214.27s20.6-14.53,57-9.4" style="fill:none;stroke:#b2b2b2;stroke-linecap:round;stroke-linejoin:round"></path><path d="M309,223.3s20.65-14.58,57.07-9.58" style="fill:none;stroke:#b2b2b2;stroke-linecap:round;stroke-linejoin:round"></path><path d="M307.91,232.33s20.71-14.64,57.13-9.77" style="fill:none;stroke:#b2b2b2;stroke-linecap:round;stroke-linejoin:round"></path><path d="M306.85,241.36s20.75-14.69,57.18-10" style="fill:none;stroke:#b2b2b2;stroke-linecap:round;stroke-linejoin:round"></path><path d="M305.79,250.38s20.8-14.73,57.23-10.14" style="fill:none;stroke:#b2b2b2;stroke-linecap:round;stroke-linejoin:round"></path><path d="M304.72,259.41s20.86-14.79,57.29-10.32" style="fill:none;stroke:#b2b2b2;stroke-linecap:round;stroke-linejoin:round"></path><path d="M303.66,268.44S324.57,253.6,361,257.93" style="fill:none;stroke:#b2b2b2;stroke-linecap:round;stroke-linejoin:round"></path><path d="M302.59,277.47s21-14.89,57.39-10.7" style="fill:none;stroke:#b2b2b2;stroke-linecap:round;stroke-linejoin:round"></path><path d="M301.53,286.5s21-14.94,57.44-10.89" style="fill:none;stroke:#b2b2b2;stroke-linecap:round;stroke-linejoin:round"></path><path d="M300.47,295.53s21.06-15,57.49-11.07" style="fill:none;stroke:#b2b2b2;stroke-linecap:round;stroke-linejoin:round"></path><path d="M299.4,304.56S320.52,289.51,357,293.3" style="fill:none;stroke:#b2b2b2;stroke-linecap:round;stroke-linejoin:round"></path><path d="M298.34,313.59s21.17-15.1,57.6-11.45" style="fill:none;stroke:#b2b2b2;stroke-linecap:round;stroke-linejoin:round"></path><path d="M297.28,322.61S318.5,307.46,354.92,311" style="fill:none;stroke:#b2b2b2;stroke-linecap:round;stroke-linejoin:round"></path><path d="M296.21,331.64s21.28-15.2,57.7-11.81" style="fill:none;stroke:#b2b2b2;stroke-linecap:round;stroke-linejoin:round"></path><path d="M295.15,340.67s21.32-15.25,57.75-12" style="fill:none;stroke:#b2b2b2;stroke-linecap:round;stroke-linejoin:round"></path><path d="M294.08,349.7s21.38-15.31,57.81-12.19" style="fill:none;stroke:#b2b2b2;stroke-linecap:round;stroke-linejoin:round"></path><path d="M293,358.73s21.43-15.36,57.86-12.37" style="fill:none;stroke:#b2b2b2;stroke-linecap:round;stroke-linejoin:round"></path><path d="M292,367.76s21.48-15.41,57.91-12.56" style="fill:none;stroke:#b2b2b2;stroke-linecap:round;stroke-linejoin:round"></path><path d="M290.89,376.79s21.54-15.47,58-12.75" style="fill:none;stroke:#b2b2b2;stroke-linecap:round;stroke-linejoin:round"></path><path d="M289.83,385.82s21.59-15.52,58-12.94" style="fill:none;stroke:#b2b2b2;stroke-linecap:round;stroke-linejoin:round"></path><path d="M391,144.32s28.33-4,68.13,16.87" style="fill:none;stroke:#b2b2b2;stroke-linecap:round;stroke-linejoin:round"></path><path d="M390,153.25s28.77-3.82,68.26,16.81" style="fill:none;stroke:#b2b2b2;stroke-linecap:round;stroke-linejoin:round"></path><path d="M389,162.17s29.21-3.58,68.39,16.76" style="fill:none;stroke:#b2b2b2;stroke-linecap:round;stroke-linejoin:round"></path><path d="M388.06,171.1s29.65-3.35,68.51,16.71" style="fill:none;stroke:#b2b2b2;stroke-linecap:round;stroke-linejoin:round"></path><path d="M387.07,180s30.1-3.11,68.65,16.66" style="fill:none;stroke:#b2b2b2;stroke-linecap:round;stroke-linejoin:round"></path><path d="M386.08,189s30.54-2.88,68.78,16.6" style="fill:none;stroke:#b2b2b2;stroke-linecap:round;stroke-linejoin:round"></path><path d="M385.1,197.87s31-2.64,68.91,16.56" style="fill:none;stroke:#b2b2b2;stroke-linecap:round;stroke-linejoin:round"></path><path d="M384.11,206.8s31.42-2.42,69,16.5" style="fill:none;stroke:#b2b2b2;stroke-linecap:round;stroke-linejoin:round"></path><path d="M383.13,215.72s31.86-2.18,69.16,16.45" style="fill:none;stroke:#b2b2b2;stroke-linecap:round;stroke-linejoin:round"></path><path d="M382.14,224.65s32.3-2,69.3,16.39" style="fill:none;stroke:#b2b2b2;stroke-linecap:round;stroke-linejoin:round"></path><path d="M381.15,233.57s32.75-1.71,69.43,16.35" style="fill:none;stroke:#b2b2b2;stroke-linecap:round;stroke-linejoin:round"></path><path d="M380.17,242.5s33.18-1.48,69.56,16.29" style="fill:none;stroke:#b2b2b2;stroke-linecap:round;stroke-linejoin:round"></path><path d="M379.18,251.42s33.63-1.24,69.69,16.24" style="fill:none;stroke:#b2b2b2;stroke-linecap:round;stroke-linejoin:round"></path><path d="M378.2,260.35s34.06-1,69.81,16.19" style="fill:none;stroke:#b2b2b2;stroke-linecap:round;stroke-linejoin:round"></path><path d="M377.21,269.27s34.51-.78,70,16.14" style="fill:none;stroke:#b2b2b2;stroke-linecap:round;stroke-linejoin:round"></path><path d="M376.22,278.2s34.95-.55,70.08,16.08" style="fill:none;stroke:#b2b2b2;stroke-linecap:round;stroke-linejoin:round"></path><path d="M375.24,287.12s35.39-.31,70.2,16" style="fill:none;stroke:#b2b2b2;stroke-linecap:round;stroke-linejoin:round"></path><path d="M374.25,296.05s35.83-.08,70.34,16" style="fill:none;stroke:#b2b2b2;stroke-linecap:round;stroke-linejoin:round"></path><path d="M373.27,305s36.27.16,70.46,15.93" style="fill:none;stroke:#b2b2b2;stroke-linecap:round;stroke-linejoin:round"></path><path d="M372.28,313.9s36.71.39,70.6,15.87" style="fill:none;stroke:#b2b2b2;stroke-linecap:round;stroke-linejoin:round"></path><path d="M371.3,322.82s37.15.62,70.72,15.83" style="fill:none;stroke:#b2b2b2;stroke-linecap:round;stroke-linejoin:round"></path><path d="M370.31,331.75s37.59.85,70.85,15.77" style="fill:none;stroke:#b2b2b2;stroke-linecap:round;stroke-linejoin:round"></path><path d="M369.32,340.67s38,1.09,71,15.72" style="fill:none;stroke:#b2b2b2;stroke-linecap:round;stroke-linejoin:round"></path><path d="M368.34,349.6s38.47,1.32,71.11,15.67" style="fill:none;stroke:#b2b2b2;stroke-linecap:round;stroke-linejoin:round"></path><path d="M367.35,358.52s38.92,1.56,71.25,15.62" style="fill:none;stroke:#b2b2b2;stroke-linecap:round;stroke-linejoin:round"></path><path d="M366.37,367.45s39.35,1.79,71.37,15.56" style="fill:none;stroke:#b2b2b2;stroke-linecap:round;stroke-linejoin:round"></path><path d="M365.38,376.37s39.8,2,71.5,15.52" style="fill:none;stroke:#b2b2b2;stroke-linecap:round;stroke-linejoin:round"></path><path d="M186.72,155.4s10-11.75,42.4-12.43" style="fill:none;stroke:#b2b2b2;stroke-linecap:round;stroke-linejoin:round"></path><path d="M185.5,164.36s10-11.58,42.45-12.46" style="fill:none;stroke:#b2b2b2;stroke-linecap:round;stroke-linejoin:round"></path><path d="M184.27,173.33s10-11.42,42.51-12.51" style="fill:none;stroke:#b2b2b2;stroke-linecap:round;stroke-linejoin:round"></path><path d="M183.05,182.3s10-11.25,42.57-12.55" style="fill:none;stroke:#b2b2b2;stroke-linecap:round;stroke-linejoin:round"></path><path d="M181.83,191.26s10-11.08,42.62-12.59" style="fill:none;stroke:#b2b2b2;stroke-linecap:round;stroke-linejoin:round"></path><path d="M180.6,200.23s10-10.92,42.68-12.63" style="fill:none;stroke:#b2b2b2;stroke-linecap:round;stroke-linejoin:round"></path><path d="M179.38,209.19s10-10.75,42.73-12.67" style="fill:none;stroke:#b2b2b2;stroke-linecap:round;stroke-linejoin:round"></path><path d="M178.16,218.16s10-10.58,42.79-12.71" style="fill:none;stroke:#b2b2b2;stroke-linecap:round;stroke-linejoin:round"></path><path d="M176.93,227.13s10.06-10.42,42.85-12.76" style="fill:none;stroke:#b2b2b2;stroke-linecap:round;stroke-linejoin:round"></path><path d="M175.71,236.09s10.06-10.25,42.9-12.79" style="fill:none;stroke:#b2b2b2;stroke-linecap:round;stroke-linejoin:round"></path><path d="M174.49,245.06c0-.05,10.06-10.09,42.95-12.84" style="fill:none;stroke:#b2b2b2;stroke-linecap:round;stroke-linejoin:round"></path><path d="M173.27,254c0-.05,10.06-9.91,43-12.87" style="fill:none;stroke:#b2b2b2;stroke-linecap:round;stroke-linejoin:round"></path><path d="M172,263c.05-.06,10.07-9.75,43.07-12.92" style="fill:none;stroke:#b2b2b2;stroke-linecap:round;stroke-linejoin:round"></path><path d="M170.82,272c.05-.07,10.07-9.59,43.12-13" style="fill:none;stroke:#b2b2b2;stroke-linecap:round;stroke-linejoin:round"></path><path d="M169.6,280.92c.05-.07,10.07-9.42,43.17-13" style="fill:none;stroke:#b2b2b2;stroke-linecap:round;stroke-linejoin:round"></path><path d="M168.37,289.89c.06-.08,10.08-9.25,43.24-13" style="fill:none;stroke:#b2b2b2;stroke-linecap:round;stroke-linejoin:round"></path><path d="M167.15,298.85c.06-.08,10.08-9.08,43.29-13.08" style="fill:none;stroke:#b2b2b2;stroke-linecap:round;stroke-linejoin:round"></path><path d="M165.93,307.82c.06-.09,10.08-8.92,43.34-13.12" style="fill:none;stroke:#b2b2b2;stroke-linecap:round;stroke-linejoin:round"></path><path d="M164.7,316.79c.07-.09,10.09-8.76,43.4-13.17" style="fill:none;stroke:#b2b2b2;stroke-linecap:round;stroke-linejoin:round"></path><path d="M163.48,325.75c.07-.09,10.09-8.58,43.46-13.2" style="fill:none;stroke:#b2b2b2;stroke-linecap:round;stroke-linejoin:round"></path><path d="M162.26,334.72c.07-.1,10.09-8.42,43.51-13.25" style="fill:none;stroke:#b2b2b2;stroke-linecap:round;stroke-linejoin:round"></path><path d="M161,343.68c.09-.1,10.1-8.25,43.57-13.28" style="fill:none;stroke:#b2b2b2;stroke-linecap:round;stroke-linejoin:round"></path><path d="M159.81,352.65c.09-.11,10.1-8.09,43.62-13.33" style="fill:none;stroke:#b2b2b2;stroke-linecap:round;stroke-linejoin:round"></path><path d="M158.59,361.62c.09-.12,10.1-7.92,43.68-13.37" style="fill:none;stroke:#b2b2b2;stroke-linecap:round;stroke-linejoin:round"></path><path d="M157.36,370.58c.1-.12,10.12-7.75,43.74-13.41" style="fill:none;stroke:#b2b2b2;stroke-linecap:round;stroke-linejoin:round"></path><path d="M156.14,379.55c.1-.13,10.12-7.59,43.79-13.45" style="fill:none;stroke:#b2b2b2;stroke-linecap:round;stroke-linejoin:round"></path><path d="M154.92,388.51c.1-.13,10.12-7.42,43.84-13.49" style="fill:none;stroke:#b2b2b2;stroke-linecap:round;stroke-linejoin:round"></path><path d="M241.94,140.28s24.37-8.77,47.22,6.74" style="fill:none;stroke:#b2b2b2;stroke-linecap:round;stroke-linejoin:round"></path><path d="M240.82,149.18s24.29-8.72,47.43,6.64" style="fill:none;stroke:#b2b2b2;stroke-linecap:round;stroke-linejoin:round"></path><path d="M239.7,158.07s24.21-8.66,47.64,6.54" style="fill:none;stroke:#b2b2b2;stroke-linecap:round;stroke-linejoin:round"></path><path d="M238.59,167s24.13-8.61,47.84,6.44" style="fill:none;stroke:#b2b2b2;stroke-linecap:round;stroke-linejoin:round"></path><path d="M237.47,175.87a59.62,59.62,0,0,1,48,6.33" style="fill:none;stroke:#b2b2b2;stroke-linecap:round;stroke-linejoin:round"></path><path d="M236.36,184.77A60.51,60.51,0,0,1,284.61,191" style="fill:none;stroke:#b2b2b2;stroke-linecap:round;stroke-linejoin:round"></path><path d="M235.24,193.67a61.49,61.49,0,0,1,48.47,6.12" style="fill:none;stroke:#b2b2b2;stroke-linecap:round;stroke-linejoin:round"></path><path d="M234.13,202.57s23.8-8.41,48.67,6" style="fill:none;stroke:#b2b2b2;stroke-linecap:round;stroke-linejoin:round"></path><path d="M233,211.47s23.72-8.36,48.88,5.91" style="fill:none;stroke:#b2b2b2;stroke-linecap:round;stroke-linejoin:round"></path><path d="M231.9,220.37s23.64-8.31,49.08,5.81" style="fill:none;stroke:#b2b2b2;stroke-linecap:round;stroke-linejoin:round"></path><path d="M230.78,229.27s23.56-8.25,49.29,5.7" style="fill:none;stroke:#b2b2b2;stroke-linecap:round;stroke-linejoin:round"></path><path d="M229.66,238.16s23.48-8.19,49.51,5.61" style="fill:none;stroke:#b2b2b2;stroke-linecap:round;stroke-linejoin:round"></path><path d="M228.55,247.06s23.4-8.14,49.71,5.5" style="fill:none;stroke:#b2b2b2;stroke-linecap:round;stroke-linejoin:round"></path><path d="M227.43,256s23.32-8.09,49.92,5.4" style="fill:none;stroke:#b2b2b2;stroke-linecap:round;stroke-linejoin:round"></path><path d="M226.32,264.86s23.23-8,50.12,5.29" style="fill:none;stroke:#b2b2b2;stroke-linecap:round;stroke-linejoin:round"></path><path d="M225.2,273.76s23.16-8,50.33,5.19" style="fill:none;stroke:#b2b2b2;stroke-linecap:round;stroke-linejoin:round"></path><path d="M224.09,282.66s23.07-7.94,50.54,5.08" style="fill:none;stroke:#b2b2b2;stroke-linecap:round;stroke-linejoin:round"></path><path d="M223,291.56s23-7.89,50.75,5" style="fill:none;stroke:#b2b2b2;stroke-linecap:round;stroke-linejoin:round"></path><path d="M221.86,300.46s22.91-7.84,50.95,4.88" style="fill:none;stroke:#b2b2b2;stroke-linecap:round;stroke-linejoin:round"></path><path d="M220.74,309.36s22.83-7.79,51.16,4.77" style="fill:none;stroke:#b2b2b2;stroke-linecap:round;stroke-linejoin:round"></path><path d="M219.62,318.26s22.75-7.74,51.37,4.67" style="fill:none;stroke:#b2b2b2;stroke-linecap:round;stroke-linejoin:round"></path><path d="M218.51,327.15s22.66-7.68,51.58,4.57" style="fill:none;stroke:#b2b2b2;stroke-linecap:round;stroke-linejoin:round"></path><path d="M217.39,336.05s22.59-7.62,51.79,4.47" style="fill:none;stroke:#b2b2b2;stroke-linecap:round;stroke-linejoin:round"></path><path d="M216.28,345s22.5-7.57,52,4.36" style="fill:none;stroke:#b2b2b2;stroke-linecap:round;stroke-linejoin:round"></path><path d="M215.16,353.85s22.42-7.52,52.2,4.26" style="fill:none;stroke:#b2b2b2;stroke-linecap:round;stroke-linejoin:round"></path><path d="M214.05,362.75s22.34-7.47,52.4,4.15" style="fill:none;stroke:#b2b2b2;stroke-linecap:round;stroke-linejoin:round"></path><path d="M212.93,371.65s22.26-7.42,52.62,4.05" style="fill:none;stroke:#b2b2b2;stroke-linecap:round;stroke-linejoin:round"></path><path d="M316.59,113.17l-13.93,127.2,12.47-17.59L324.66,233l13.2-127.57S326.12,106.21,316.59,113.17Z" style="fill:#263238;stroke:#263238;stroke-linecap:round;stroke-linejoin:round"></path></g><g id="freepik--Character--inject-16"><path d="M84.81,455.7s-1.28.48-.16,1.6,5.62,1.93,9.63,1.61a38.3,38.3,0,0,0,10.11-2.73c1.6-.64.48-4.17.48-4.17Z" style="fill:#263238;stroke:#263238;stroke-linecap:round;stroke-linejoin:round"></path><path d="M92,426.53s2.41,17.78,2.41,18.58-6.26,7.86-9.31,9.46,4.82,3.05,8.19,2.73,8.34-1.28,9.3-1.92,2.09-1.13,2.25-3.37-1.12-9.15-1.12-9.15l.28-16.92Z" style="fill:#fff;stroke:#263238;stroke-linecap:round;stroke-linejoin:round"></path><path d="M103.79,443.1a24.65,24.65,0,0,1-9.55.26c.12,1,.2,1.61.2,1.75a9.44,9.44,0,0,1-1.78,2.5c1.59-.29,4.82-.59,6.88,1.09,1.53,1.25,2.19,3.47,1.94,6.59a1.24,1.24,0,0,0,.08.51,4.57,4.57,0,0,0,1.06-.42,9.5,9.5,0,0,0,1.18-.85c.1-3.43-.84-6-2.82-7.61a7.41,7.41,0,0,0-1.47-.93,26.83,26.83,0,0,0,4.67-.62C104,444.33,103.86,443.49,103.79,443.1Z" style="fill:#263238"></path><path d="M98.32,450.56A11.25,11.25,0,0,0,91.46,449c-.78.85-1.64,1.73-2.5,2.56,2.43-.41,6-.57,8,.9a4.79,4.79,0,0,1,1.92,4s0,0,0,.05c.84-.17,1.62-.35,2.25-.53A7,7,0,0,0,98.32,450.56Z" style="fill:#263238"></path><path d="M147.55,454.61a1.35,1.35,0,0,0-.32,1.93c.8,1.12,3.69,1.12,5.29,1.12s9.95.16,9.95.16,12.19-.16,14-.64,1.92-1.44,1.28-1.93a3.25,3.25,0,0,0-1.92-.32,43.65,43.65,0,0,1-8.83.16c-3.53-.48-14.12-.32-15.72-.48A25.37,25.37,0,0,0,147.55,454.61Z" style="fill:#263238;stroke:#263238;stroke-linecap:round;stroke-linejoin:round"></path><path d="M141.87,427.27s5.36,16.11,5.52,16.91a31.48,31.48,0,0,1,.32,5c0,2.24-1.45,4.65,1.12,6.25s9.63.49,13.16.81a82.1,82.1,0,0,0,10.91,0c4.81-.16,6.58-2.73,5.45-3.21s-1.6.8-6.9-2.25-14.6-7.54-14.92-8.5-2.08-15.08-2.08-15.08Z" style="fill:#fff;stroke:#263238;stroke-linecap:round;stroke-linejoin:round"></path><path d="M166,447.78a24.46,24.46,0,0,0-1.48,8.59c.76,0,1.52,0,2.3,0a23,23,0,0,1,1.22-7.52Z" style="fill:#263238"></path><path d="M154.73,456.3a22.06,22.06,0,0,1,4.9-11.94c-.8-.45-1.49-.86-2-1.2a24.1,24.1,0,0,0-5.18,13.09C153.16,456.3,153.93,456.31,154.73,456.3Z" style="fill:#263238"></path><path d="M156.53,442.26c-.05-.15-.13-.62-.24-1.3a38.21,38.21,0,0,1-9.36,1.46c.26.95.43,1.61.46,1.76l.08.53a38.73,38.73,0,0,0,9.92-1.69A2.72,2.72,0,0,1,156.53,442.26Z" style="fill:#263238"></path><path d="M129.26,201.14s.76,6.82,2.18,9.75,4.83,5.31,4,11.37-5.31,9.19-7.68,9.67a17,17,0,0,1-4,.37l.47,6.73a44.65,44.65,0,0,1,11.57,1.08c4.94,1.37,13,4.11,16.58,4.66s17.26,1.25,20,4.26,2.05,5.76.41,7.4-10.27,1.22-21.64,1.22H139.79s2.6,6.71,2.19,11.51-4.52,13.29-4.52,13.29.41,9.59,1.23,17,1,12.19,1,12.19,4.52,30.55,9.86,50.83,4.8,50.55,6.17,55.89S157.87,429,157.87,429s-13.15,2.6-17.81,2.88a66.26,66.26,0,0,1-6.85.14l-2.74-26.72s-5.34-35.48-5.62-36-7.94-26.58-7.94-26.58L112.11,389l-4.52,42.19L87,428.63l.41-51.1s-1.09-29.73-.82-42.06,4.11-23.29,7.53-27.68,11.92-17,11.92-17l-1.5-8.63-8-15.75s-18.42,13.24-21.57,15.44-7,.55-8-4.66,23.49-26.81,27.33-29.55,17-10.14,17-10.14l-.55-6.58s-4.66-1.5-6.3-5.2,4.38-8.36,4.52-11.37-2.19-8.5,1.64-9.87S129.26,201.14,129.26,201.14Z" style="fill:#fff;stroke:#263238;stroke-linecap:round;stroke-linejoin:round"></path><path d="M133.21,432.06a66.26,66.26,0,0,0,6.85-.14c4.66-.28,17.81-2.88,17.81-2.88s-.82-5.34-2.19-10.69-.82-35.62-6.17-55.89-9.86-50.83-9.86-50.83-.14-4.8-1-12.19c-.35-3.12-.62-6.63-.82-9.64l-31.91.28.12.72s-8.49,12.61-11.92,17-7.26,15.35-7.53,27.68.82,42.06.82,42.06L87,428.63l20.55,2.6L112.11,389l4.8-46.31s7.67,26,7.94,26.58,5.62,36,5.62,36Z" style="fill:#625EFF;stroke:#263238;stroke-linecap:round;stroke-linejoin:round"></path><line x1="127.07" y1="300.45" x2="136.85" y2="300.31" style="fill:none;stroke:#263238;stroke-linecap:round;stroke-linejoin:round"></line><line x1="112.91" y1="300.66" x2="124.66" y2="300.49" style="fill:none;stroke:#263238;stroke-linecap:round;stroke-linejoin:round"></line><line x1="131.49" y1="300.48" x2="133.82" y2="321.03" style="fill:none;stroke:#263238;stroke-linecap:round;stroke-linejoin:round"></line><line x1="133.1" y1="303.16" x2="138.46" y2="327.29" style="fill:none;stroke:#263238;stroke-linecap:round;stroke-linejoin:round"></line><line x1="111.3" y1="302.45" x2="106.66" y2="319.96" style="fill:none;stroke:#263238;stroke-linecap:round;stroke-linejoin:round"></line><line x1="109.97" y1="323.99" x2="109.69" y2="326.75" style="fill:none;stroke:#263238;stroke-linecap:round;stroke-linejoin:round"></line><line x1="111.84" y1="305.31" x2="110.3" y2="320.68" style="fill:none;stroke:#263238;stroke-linecap:round;stroke-linejoin:round"></line><path d="M116.31,210.13a5.74,5.74,0,0,1,4.47-1.62" style="fill:none;stroke:#263238;stroke-miterlimit:10"></path><path d="M126.49,206.33a3.94,3.94,0,0,1,2.57-1.33" style="fill:none;stroke:#263238;stroke-miterlimit:10"></path><path d="M136.17,210.34a4.87,4.87,0,1,1-4.87-4.87A4.87,4.87,0,0,1,136.17,210.34Z" style="fill:none;stroke:#263238;stroke-linecap:round;stroke-linejoin:round"></path><path d="M123.89,221.62a7.07,7.07,0,0,0,5.9.54" style="fill:none;stroke:#263238;stroke-linecap:round;stroke-linejoin:round"></path><path d="M124.85,214.42a4.86,4.86,0,1,1-4.86-4.86A4.86,4.86,0,0,1,124.85,214.42Z" style="fill:none;stroke:#263238;stroke-linecap:round;stroke-linejoin:round"></path><path d="M122.24,214.14c.15.86-.08,1.62-.53,1.7s-.93-.55-1.09-1.4.08-1.62.53-1.7S122.08,213.28,122.24,214.14Z" style="fill:#263238"></path><path d="M130.22,211.29c.16.85-.07,1.61-.52,1.69s-.94-.54-1.09-1.4.08-1.61.52-1.7S130.07,210.43,130.22,211.29Z" style="fill:#263238"></path><line x1="115.4" y1="216.14" x2="108.14" y2="219.56" style="fill:none;stroke:#263238;stroke-linecap:round;stroke-linejoin:round"></line><path d="M124.72,213a1.76,1.76,0,0,1,3,.13" style="fill:none;stroke:#263238;stroke-linecap:round;stroke-linejoin:round"></path><path d="M126,211.75a3.35,3.35,0,0,0,1.78,1.37c1.1.28,4.25.55,4,2.06a3.85,3.85,0,0,1-2.19,2.87" style="fill:none;stroke:#263238;stroke-linecap:round;stroke-linejoin:round"></path><path d="M110.41,206.45s.85,5.66.14,9.35-3.82,5.09-3.4,8.07,5,7.36,5,7.36a12.93,12.93,0,0,1-9.91,4.67C95.54,236,90,233.49,90,222.31s1.56-23.79,9.63-27.75,23.22-2.41,26.62-1.13,7.22,5.66,5.94,7.78S116.07,207.16,110.41,206.45Z" style="fill:#263238;stroke:#263238;stroke-linecap:round;stroke-linejoin:round"></path><path d="M110.33,221.34s-4.11-3.56-5.75-1.78.41,4.93,1.91,6.71a2.46,2.46,0,0,0,4-.13" style="fill:#fff;stroke:#263238;stroke-linecap:round;stroke-linejoin:round"></path><polygon points="123.77 232.31 118.89 231.65 124.04 237.86 123.77 232.31" style="fill:#263238;stroke:#263238;stroke-linecap:round;stroke-linejoin:round"></polygon><path d="M169.15,256.13a12.3,12.3,0,0,1-5.41-2c-2.38-1.72-3.3-7-5.41-10.83s-13-22.49-13-22.49a6.33,6.33,0,0,1-3-.92c-1.45-.93-2.9-2.12-5.14-2.38s-3.44.13-4.23-.13-.26-2.51,1.59-3,4.62.53,4.62.53a11,11,0,0,0-.4-4.22c-.66-1.72-2.9-3.7-4.49-4.62s-3.3-.93-2.64-1.85,1.59-1.19,3.57-.93,5.41,3.83,5.41,3.83,3,2.38,3.69,2.38,3.44-.13,4.76,2,2.5,6.6,2.37,7.79a10.89,10.89,0,0,0,0,2.24s14.89,17.35,18,20.38,5.28,10,4.75,11.75a9.7,9.7,0,0,1-1.36,2.81" style="fill:#fff;stroke:#263238;stroke-linecap:round;stroke-linejoin:round"></path><path d="M143.7,208a2.06,2.06,0,0,0-.67-.8c-2-1.46-2.8,1.37-2.74,2.68a9.06,9.06,0,0,0,.79,3c.14.34.38.73.77.71a.67.67,0,0,0,.49-.26c.74-.83.11-2.11.53-3.1.24-.58.84-1,.92-1.64A1.18,1.18,0,0,0,143.7,208Z" style="fill:#fff;stroke:#263238;stroke-linecap:round;stroke-linejoin:round"></path><path d="M146.34,208.14a2.06,2.06,0,0,0-.67-.8c-2-1.45-2.8,1.37-2.74,2.68a9.05,9.05,0,0,0,.79,3c.14.33.38.73.77.71a.71.71,0,0,0,.49-.27c.74-.82.11-2.1.53-3.09.24-.58.84-1,.92-1.65A1.21,1.21,0,0,0,146.34,208.14Z" style="fill:#fff;stroke:#263238;stroke-linecap:round;stroke-linejoin:round"></path><path d="M148.77,209.24a1.8,1.8,0,0,0-.6-.72c-1.77-1.32-2.53,1.24-2.48,2.42a8.34,8.34,0,0,0,.71,2.75c.13.3.35.66.7.64a.65.65,0,0,0,.45-.24c.67-.74.09-1.9.47-2.8.22-.52.76-.93.84-1.49A1.09,1.09,0,0,0,148.77,209.24Z" style="fill:#fff;stroke:#263238;stroke-linecap:round;stroke-linejoin:round"></path><path d="M144.89,216.22a9.27,9.27,0,0,0,1.05,3.33,3.86,3.86,0,0,0,2.57,1.15" style="fill:none;stroke:#263238;stroke-linecap:round;stroke-linejoin:round"></path><path d="M137.46,282.45s4.11-8.5,4.52-13.29-2.19-11.51-2.19-11.51-7.78-14.76-10-18.49c-1.09-.09-2.09-.13-3-.14a24.71,24.71,0,0,1,2.43,4.38c.41,1.51,3.84,10.13,3.84,10.13l-8.63,8.62L111.09,256a38.29,38.29,0,0,0-3.28-11.08,33,33,0,0,0-2.4-4l-1.74,1a24,24,0,0,1,1.54,2.4c2.32,4.11,2.87,12.45,2.87,12.45s-5.2,7.26-6.43,11.09a34.67,34.67,0,0,1-1.91,4.68l4.84,9.59.72,4.12,32.21-2.67C137.48,282.88,137.46,282.45,137.46,282.45Z" style="fill:#625EFF;stroke:#263238;stroke-linecap:round;stroke-linejoin:round"></path><path d="M72.48,268.94s-7.27,5.77-7.39,8.83,24.59,25.67,26.48,27,3.65,1.76,4.71,1.29,7.06-3.88,7.06-3.88,7.29-.59,7.76-1.29.12-.83-1.29-.95-3.18-.47-3.53-.47-2.12-.23-2.12-.23,7.89-2.94,8.36-3.06,2.59-.24,2.23-1.06-2.59-2-4.59-2.59-6.94-1.06-8.35,0-7.06,7.65-7.06,7.65a30.1,30.1,0,0,1-6-10.59c-2-6.36-9.76-15.21-12.35-17" style="fill:#fff;stroke:#263238;stroke-linecap:round;stroke-linejoin:round"></path><path d="M103.81,296.74s2.94-1.06,5.06-1.77,3.76-1.29,4.82-.59" style="fill:none;stroke:#263238;stroke-linecap:round;stroke-linejoin:round"></path><path d="M102.87,294.5a29.64,29.64,0,0,1,7.29-2" style="fill:none;stroke:#263238;stroke-linecap:round;stroke-linejoin:round"></path><path d="M102.16,293.32a13.82,13.82,0,0,1,3.41-1.53" style="fill:none;stroke:#263238;stroke-linecap:round;stroke-linejoin:round"></path></g></svg>
